/vscmnt/brussel_pixiu_data/_data_brussel/112/vsc11236/PredSimResults/SUBJ04opt3D/weighted-trackIG/worker_02.mot
version=1
nRows=5
nColumns=50
inDegrees=yes
endheader
                time	         pelvis_tilt	         pelvis_list	     pelvis_rotation	           pelvis_tx	           pelvis_ty	           pelvis_tz	       hip_flexion_r	     hip_adduction_r	      hip_rotation_r	        knee_angle_r	       ankle_angle_r	         mtp_angle_r	       hip_flexion_l	     hip_adduction_l	      hip_rotation_l	        knee_angle_l	       ankle_angle_l	         mtp_angle_l	    lumbar_extension	      lumbar_bending	     lumbar_rotation	 ercspn_r/activation	 intobl_r/activation	 extobl_r/activation	    abd_r/activation	    add_r/activation	hamstrings_r/activation	bifemsh_r/activation	glut_max_r/activation	iliopsoas_r/activation	rect_fem_r/activation	  vasti_r/activation	gastroc_r/activation	 soleus_r/activation	tib_ant_r/activation	 ercspn_l/activation	 intobl_l/activation	 extobl_l/activation	    abd_l/activation	    add_l/activation	hamstrings_l/activation	bifemsh_l/activation	glut_max_l/activation	iliopsoas_l/activation	rect_fem_l/activation	  vasti_l/activation	gastroc_l/activation	 soleus_l/activation	tib_ant_l/activation	
          0.67674415	         -1.56204756	         -0.32283658	         -8.54968644	          0.58876741	          0.88464623	          0.01094009	        -11.98901772	         -0.27638389	         -7.22872093	         -6.95561521	         13.85438537	         18.02913137	         28.28854797	         -3.04209416	         -9.84125160	        -10.58395152	          3.99715200	          0.22983701	        -14.08629806	          4.22561950	          7.77357979	          0.00999999	          0.00999999	          0.00999999	          0.07645768	          0.00999999	          0.02893533	          0.26228150	          0.01840883	          0.01840883	          0.00999999	          0.00999999	          0.25533784	          0.24220191	          0.01225580	          0.04507995	          0.23418419	          0.02241255	          0.01209963	          0.24182939	          0.06657202	          0.02765096	          0.01639165	          0.18759924	          0.04147951	          0.04756638	          0.00999999	          0.00999999	          0.33523252	
          0.69027903	         -1.67464439	         -0.32441062	         -8.34481296	          0.60373257	          0.88228715	          0.01057132	        -12.67298452	         -0.37138870	         -7.87028348	         -7.39956884	         13.71079143	         19.38723042	         28.28133529	         -2.89448915	        -10.03012958	        -11.88660126	          3.81917451	          0.22965072	        -13.59284957	          3.62445585	          7.85731919	          0.02761911	          0.00999999	          0.00999999	          0.06238483	          0.00999999	          0.02360948	          0.21400579	          0.01502049	          0.01502048	          0.00999999	          0.00999999	          0.24897990	          0.24848248	          0.00999999	          0.03678250	          0.23057034	          0.01828728	          0.00999999	          0.30324681	          0.06751039	          0.02256150	          0.01337459	          0.15306959	          0.03384476	          0.03881127	          0.01502048	          0.01840882	          0.32729983	
          0.70381391	         -1.77124026	         -0.26786865	         -8.09810241	          0.61915119	          0.88003963	          0.01015693	        -13.33192885	         -0.53036192	         -8.54888234	         -7.96450105	         13.48513446	         20.81242727	         28.16617240	         -2.73523512	        -10.07520418	        -13.25391413	          3.59935298	          0.22182940	        -13.05565501	          2.93219058	          7.91732111	          0.02630493	          0.00999999	          0.00999999	          0.05090223	          0.00999999	          0.03244428	          0.17461573	          0.01225581	          0.01225580	          0.00999999	          0.00999999	          0.22170956	          0.24611753	          0.00999999	          0.03001229	          0.22523537	          0.01492131	          0.01805885	          0.24743099	          0.07106420	          0.01840882	          0.02411772	          0.12489549	          0.02761527	          0.03808863	          0.01225580	          0.01502048	          0.35001909	
          0.71734879	         -1.85311262	         -0.15177391	         -7.80003270	          0.63482954	          0.87807475	          0.00964199	        -13.90355874	         -0.76076713	         -9.27526566	         -8.73768100	         13.15942810	         22.28904589	         27.99981461	         -2.53258756	        -10.20155132	        -14.51284502	          3.20304871	          0.20974928	        -12.50192638	          2.15319466	          7.94486569	          0.02985456	          0.00999999	          0.00999999	          0.04153313	          0.00999999	          0.02765887	          0.14247583	          0.00999999	          0.00999999	          0.00999999	          0.00999999	          0.18090154	          0.23551124	          0.00999999	          0.02448820	          0.18377838	          0.01217488	          0.02675772	          0.22202458	          0.07630617	          0.01502048	          0.01967860	          0.10190714	          0.02253238	          0.10426856	          0.00999999	          0.01225580	          0.37684916	
          0.73088368	         -1.92058162	          0.01305542	         -7.45621997	          0.65065537	          0.87656805	          0.00900906	        -14.33549697	         -1.06309745	        -10.04056009	         -9.79564078	         12.68938226	         23.81686966	         27.76704836	         -2.29232083	        -10.46082519	        -15.67358402	          2.84361552	          0.18880245	        -11.95040069	          1.30646671	          7.93842344	          0.04060152	          0.00999999	          0.00999999	          0.03388851	          0.00999999	          0.02571126	          0.11625163	          0.00999999	          0.00999999	          0.00999999	          0.00999999	          0.14760468	          0.21815146	          0.00999999	          0.02295802	          0.14995200	          0.00999999	          0.04602477	          0.19348933	          0.07676455	          0.01225580	          0.01605654	          0.08315004	          0.01838506	          0.17313819	          0.00999999	          0.00999999	          0.39393340	
